<?xml version="1.0" encoding="UTF-8" standalone="no"?>
<!-- Created with Inkscape (http://www.inkscape.org/) -->

<svg
   version="1.1"
   id="svg9"
   width="961.70099"
   height="722.52002"
   viewBox="0 0 961.70098 722.52001"
   sodipodi:docname="vent_energo_scheme.svg"
   inkscape:version="1.2 (dc2aedaf03, 2022-05-15)"
   xmlns:inkscape="http://www.inkscape.org/namespaces/inkscape"
   xmlns:sodipodi="http://sodipodi.sourceforge.net/DTD/sodipodi-0.dtd"
   xmlns="http://www.w3.org/2000/svg"
   xmlns:svg="http://www.w3.org/2000/svg">
  <defs
     id="defs13" />
  <sodipodi:namedview
     id="namedview11"
     pagecolor="#ffffff"
     bordercolor="#666666"
     borderopacity="1.0"
     inkscape:showpageshadow="2"
     inkscape:pageopacity="0.0"
     inkscape:pagecheckerboard="0"
     inkscape:deskcolor="#d1d1d1"
     showgrid="false"
     inkscape:zoom="1.6338238"
     inkscape:cx="241.4581"
     inkscape:cy="262.26818"
     inkscape:window-width="1920"
     inkscape:window-height="1024"
     inkscape:window-x="0"
     inkscape:window-y="0"
     inkscape:window-maximized="1"
     inkscape:current-layer="g17">
    <inkscape:page
       x="0"
       y="0"
       id="page15"
       width="961.70099"
       height="722.52002" />
  </sodipodi:namedview>
  <g
     id="g17"
     inkscape:groupmode="layer"
     inkscape:label="Page 1"
     transform="matrix(1.3333333,0,0,-1.3333333,0,1122.52)">
    <g
       id="g19"
       transform="matrix(0.12,0,0,-0.12,110.81475,1000.488)">
      <path
         d="m 1168,2856 v 21"
         style="fill:none;stroke:#000000;stroke-width:9;stroke-linecap:round;stroke-linejoin:round;stroke-miterlimit:10;stroke-dasharray:none;stroke-opacity:1"
         id="path21" />
    </g>
    <g
       id="g23"
       transform="matrix(0.12,0,0,-0.12,110.81475,1000.488)">
      <path
         d="m 973,3043 20,-1 19,-4 19,-5 19,-7 17,-9 17,-10 16,-12 14,-14 13,-15 11,-16 10,-17 8,-18 7,-19 4,-19"
         style="fill:none;stroke:#000000;stroke-width:9;stroke-linecap:round;stroke-linejoin:bevel;stroke-miterlimit:10;stroke-dasharray:none;stroke-opacity:1"
         id="path25" />
    </g>
    <g
       id="g27"
       transform="matrix(0.12,0,0,-0.12,110.81475,1000.488)">
      <path
         d="m 969,3173 27,-1 26,-2 27,-5 26,-6 25,-7 25,-10 24,-11 24,-13 22,-14 22,-16 20,-17 19,-18"
         style="fill:none;stroke:#000000;stroke-width:9;stroke-linecap:round;stroke-linejoin:bevel;stroke-miterlimit:10;stroke-dasharray:none;stroke-opacity:1"
         id="path29" />
    </g>
    <text
       xml:space="preserve"
       transform="matrix(1,0,0,-1,163.59569,620.62127)"
       style="font-variant:normal;font-weight:normal;font-size:26.76px;font-family:'Times New Roman';-inkscape-font-specification:TimesNewRoman;text-align:end;writing-mode:lr-tb;text-anchor:end;white-space:pre;inline-size:97.932;fill:#000000;fill-opacity:1;fill-rule:nonzero;stroke:none"
       id="text33"
       x="56.917267"
       y="0"><tspan
         x="56.917267"
         y="0"
         id="tspan1106">ΔNвк</tspan></text>
    <g
       id="g39"
       transform="matrix(0.12,0,0,-0.12,110.81475,1000.488)">
      <path
         d="m 1256,3053 v 494"
         style="fill:none;stroke:#000000;stroke-width:9;stroke-linecap:round;stroke-linejoin:round;stroke-miterlimit:10;stroke-dasharray:none;stroke-opacity:1"
         id="path41" />
    </g>
    <g
       id="g43"
       transform="matrix(0.12,0,0,-0.12,110.81475,1000.488)">
      <path
         d="m 1062,3713 20,-1 19,-4 19,-5 19,-7 17,-9 17,-10 16,-12 14,-14 13,-15 11,-16 10,-17 8,-18 7,-19 4,-19"
         style="fill:none;stroke:#000000;stroke-width:9;stroke-linecap:round;stroke-linejoin:bevel;stroke-miterlimit:10;stroke-dasharray:none;stroke-opacity:1"
         id="path45" />
    </g>
    <g
       id="g47"
       transform="matrix(0.12,0,0,-0.12,110.81475,1000.488)">
      <path
         d="m 1058,3843 30,-1 29,-3 29,-5 28,-8 28,-9 27,-12 27,-13 25,-16 23,-17 23,-19"
         style="fill:none;stroke:#000000;stroke-width:9;stroke-linecap:round;stroke-linejoin:bevel;stroke-miterlimit:10;stroke-dasharray:none;stroke-opacity:1"
         id="path49" />
    </g>
    <text
       xml:space="preserve"
       transform="matrix(1,0,0,-1,161.87904,537.52669)"
       style="font-variant:normal;font-weight:normal;font-size:26.76px;font-family:'Times New Roman';-inkscape-font-specification:TimesNewRoman;text-align:end;writing-mode:lr-tb;text-anchor:end;white-space:pre;inline-size:110.415;fill:#000000;fill-opacity:1;fill-rule:nonzero;stroke:none"
       id="text53"
       x="69.670082"
       y="0"><tspan
         x="69.670082"
         y="0"
         id="tspan1108">ΔNсвп</tspan></text>
    <g
       id="g59"
       transform="matrix(0.12,0,0,-0.12,110.81475,1000.488)">
      <path
         d="m 1329,2821 -159,217"
         style="fill:none;stroke:#000000;stroke-width:6;stroke-linecap:round;stroke-linejoin:round;stroke-miterlimit:10;stroke-dasharray:none;stroke-opacity:1"
         id="path61" />
    </g>
    <path
       d="m 251.21475,635.92799 5.52,13.68 5.88,-4.2 z"
       style="fill:#000000;fill-opacity:1;fill-rule:evenodd;stroke:none"
       id="path63" />
    <g
       id="g65"
       transform="matrix(0.12,0,0,-0.12,110.81475,1000.488)">
      <path
         d="m 1401,3515 -160,217"
         style="fill:none;stroke:#000000;stroke-width:6;stroke-linecap:round;stroke-linejoin:round;stroke-miterlimit:10;stroke-dasharray:none;stroke-opacity:1"
         id="path67" />
    </g>
    <path
       d="m 259.73475,552.64799 5.64,13.68 5.76,-4.32 z"
       style="fill:#000000;fill-opacity:1;fill-rule:evenodd;stroke:none"
       id="path69" />
    <path
       d="m 279.41475,397.96799 h 390.6"
       style="fill:none;stroke:#000000;stroke-width:0.12;stroke-linecap:butt;stroke-linejoin:miter;stroke-miterlimit:10;stroke-dasharray:none;stroke-opacity:1"
       id="path71" />
    <text
       xml:space="preserve"
       transform="scale(1,-1)"
       style="font-variant:normal;font-weight:normal;font-size:26.76px;font-family:'Times New Roman';-inkscape-font-specification:TimesNewRoman;text-align:center;writing-mode:lr-tb;text-anchor:middle;fill:#000000;fill-opacity:1;fill-rule:nonzero;stroke:none"
       id="text75"
       x="481.20883"
       y="-402.6947"><tspan
         x="470.78018"
         y="-402.6947"
         id="tspan73"
         style="text-align:center;text-anchor:middle">N</tspan></text>
    <g
       id="g81"
       transform="matrix(0.12,0,0,-0.12,110.81475,1000.488)">
      <path
         d="m 887,2601 20,-1 19,-4 19,-5 19,-7 17,-9 17,-10 16,-12 14,-14 13,-15 11,-16 10,-17 8,-18 7,-19 4,-19"
         style="fill:none;stroke:#000000;stroke-width:9;stroke-linecap:round;stroke-linejoin:bevel;stroke-miterlimit:10;stroke-dasharray:none;stroke-opacity:1"
         id="path83" />
    </g>
    <g
       id="g85"
       transform="matrix(0.12,0,0,-0.12,110.81475,1000.488)">
      <path
         d="m 884,2731 26,-1 27,-2 26,-4 25,-6 25,-8 25,-9 24,-11 23,-12 22,-14 21,-15 21,-17 19,-18"
         style="fill:none;stroke:#000000;stroke-width:9;stroke-linecap:round;stroke-linejoin:bevel;stroke-miterlimit:10;stroke-dasharray:none;stroke-opacity:1"
         id="path87" />
    </g>
    <text
       xml:space="preserve"
       transform="matrix(1,0,0,-1,140.70096,675.04853)"
       style="font-variant:normal;font-weight:normal;font-size:26.76px;font-family:'Times New Roman';-inkscape-font-specification:TimesNewRoman;text-align:end;writing-mode:lr-tb;text-anchor:end;white-space:pre;inline-size:116.043;fill:#000000;fill-opacity:1;fill-rule:nonzero;stroke:none"
       id="text91"
       x="70.297264"
       y="0"><tspan
         x="70.297264"
         y="0"
         id="tspan1110">ΔNврк</tspan></text>
    <g
       id="g97"
       transform="matrix(0.12,0,0,-0.12,110.81475,1000.488)">
      <path
         d="m 1244,2379 -160,217"
         style="fill:none;stroke:#000000;stroke-width:6;stroke-linecap:round;stroke-linejoin:round;stroke-miterlimit:10;stroke-dasharray:none;stroke-opacity:1"
         id="path99" />
    </g>
    <path
       d="m 240.89475,688.96799 5.52,13.68 5.88,-4.2 z"
       style="fill:#000000;fill-opacity:1;fill-rule:evenodd;stroke:none"
       id="path101" />
    <g
       id="g103"
       transform="matrix(0.12,0,0,-0.12,110.81475,1000.488)">
      <path
         d="m 805,2064 20,-1 19,-4 19,-5 19,-7 17,-9 17,-10 16,-12 14,-14 13,-15 11,-16 10,-17 8,-18 7,-19 4,-19"
         style="fill:none;stroke:#000000;stroke-width:9;stroke-linecap:round;stroke-linejoin:bevel;stroke-miterlimit:10;stroke-dasharray:none;stroke-opacity:1"
         id="path105" />
    </g>
    <g
       id="g107"
       transform="matrix(0.12,0,0,-0.12,110.81475,1000.488)">
      <path
         d="m 801,2194 26,-1 26,-2 25,-4 26,-6 24,-7 25,-9 23,-11 23,-12 22,-13 21,-15 21,-16 19,-18"
         style="fill:none;stroke:#000000;stroke-width:9;stroke-linecap:round;stroke-linejoin:bevel;stroke-miterlimit:10;stroke-dasharray:none;stroke-opacity:1"
         id="path109" />
    </g>
    <text
       xml:space="preserve"
       transform="matrix(1,0,0,-1,35.576897,159.75881)"
       style="font-variant:normal;font-weight:normal;font-size:26.76px;font-family:'Times New Roman';-inkscape-font-specification:TimesNewRoman;text-align:end;writing-mode:lr-tb;text-anchor:end;white-space:pre;inline-size:111.855;fill:#000000;fill-opacity:1;fill-rule:nonzero;stroke:none"
       id="text113"
       x="164.0265"
       y="-578.41193"><tspan
         x="164.0265"
         y="-578.41193"
         id="tspan1112">ΔNптк</tspan></text>
    <g
       id="g123"
       transform="matrix(0.12,0,0,-0.12,110.81475,1000.488)">
      <path
         d="m 1161,1841 -159,217"
         style="fill:none;stroke:#000000;stroke-width:6;stroke-linecap:round;stroke-linejoin:round;stroke-miterlimit:10;stroke-dasharray:none;stroke-opacity:1"
         id="path125" />
    </g>
    <path
       d="m 231.05475,753.52799 5.52,13.68 5.88,-4.32 z"
       style="fill:#000000;fill-opacity:1;fill-rule:evenodd;stroke:none"
       id="path127" />
    <g
       id="g129"
       transform="matrix(0.12,0,0,-0.12,110.81475,1000.488)">
      <path
         d="m 1082,2435 v -355 m -82,-182 v -355"
         style="fill:none;stroke:#000000;stroke-width:9;stroke-linecap:round;stroke-linejoin:round;stroke-miterlimit:10;stroke-dasharray:none;stroke-opacity:1"
         id="path131" />
    </g>
    <g
       id="g133"
       transform="matrix(0.12,0,0,-0.12,110.81475,1000.488)">
      <path
         d="M 1000,1664 H 4660"
         style="fill:none;stroke:#000000;stroke-width:6;stroke-linecap:round;stroke-linejoin:round;stroke-miterlimit:10;stroke-dasharray:none;stroke-opacity:1"
         id="path135" />
    </g>
    <text
       xml:space="preserve"
       transform="scale(1,-1)"
       style="font-variant:normal;font-weight:normal;font-size:26.76px;font-family:'Times New Roman';-inkscape-font-specification:TimesNewRoman;text-align:center;writing-mode:lr-tb;text-anchor:middle;fill:#000000;fill-opacity:1;fill-rule:nonzero;stroke:none"
       id="text139"
       x="455.36676"
       y="-806.80548"><tspan
         x="445.50208"
         y="-806.80548"
         id="tspan137"
         style="text-align:center;text-anchor:middle">Nsv<tspan
   style="font-size:14px;text-align:center;text-anchor:middle"
   id="tspan1855" /></tspan></text>
    <g
       id="g145"
       transform="matrix(0.12,0,0,-0.12,110.81475,1000.488)">
      <path
         d="m 2881,1722 v 270"
         style="fill:none;stroke:#000000;stroke-width:6;stroke-linecap:round;stroke-linejoin:round;stroke-miterlimit:10;stroke-dasharray:none;stroke-opacity:1"
         id="path147" />
    </g>
    <path
       d="m 456.53475,761.44799 -3.72,14.4 h 7.32 z"
       style="fill:#000000;fill-opacity:1;fill-rule:evenodd;stroke:none"
       id="path149" />
    <g
       id="g151"
       transform="matrix(0.12,0,0,-0.12,110.81475,1000.488)">
      <path
         d="M 1168,2877 V 2614 Z"
         style="fill:none;stroke:#000000;stroke-width:9;stroke-linecap:round;stroke-linejoin:round;stroke-miterlimit:10;stroke-dasharray:none;stroke-opacity:1"
         id="path153" />
    </g>
    <g
       id="g155"
       transform="matrix(0.12,0,0,-0.12,110.81475,1000.488)">
      <path
         d="m 3015,5093 v 269"
         style="fill:none;stroke:#000000;stroke-width:6;stroke-linecap:round;stroke-linejoin:round;stroke-miterlimit:10;stroke-dasharray:none;stroke-opacity:1"
         id="path157" />
    </g>
    <path
       d="m 472.61475,357.04799 -3.6,14.28 h 7.32 z"
       style="fill:#000000;fill-opacity:1;fill-rule:evenodd;stroke:none"
       id="path159" />
    <g
       id="g161"
       transform="matrix(0.12,0,0,-0.12,110.81475,1000.488)">
      <path
         d="M 1405,4593 V 5603"
         style="fill:none;stroke:#000000;stroke-width:9;stroke-linecap:round;stroke-linejoin:round;stroke-miterlimit:10;stroke-dasharray:none;stroke-opacity:1"
         id="path163" />
    </g>
    <g
       id="g165"
       transform="matrix(0.12,0,0,-0.12,110.81475,1000.488)">
      <path
         d="m 1132,4329 20,-1 19,-4 19,-5 19,-7 17,-9 17,-10 16,-12 14,-14 13,-15 11,-16 10,-17 8,-18 7,-19 4,-19"
         style="fill:none;stroke:#000000;stroke-width:9;stroke-linecap:round;stroke-linejoin:bevel;stroke-miterlimit:10;stroke-dasharray:none;stroke-opacity:1"
         id="path167" />
    </g>
    <g
       id="g169"
       transform="matrix(0.12,0,0,-0.12,110.81475,1000.488)">
      <path
         d="m 1128,4459 26,-1 25,-2 25,-4 24,-5 25,-7 24,-9 23,-10 22,-11 22,-13 21,-15 20,-15 19,-17"
         style="fill:none;stroke:#000000;stroke-width:9;stroke-linecap:round;stroke-linejoin:bevel;stroke-miterlimit:10;stroke-dasharray:none;stroke-opacity:1"
         id="path171" />
    </g>
    <g
       id="g173"
       transform="matrix(0.12,0,0,-0.12,110.81475,1000.488)">
      <path
         d="m 1478,4130 -159,217"
         style="fill:none;stroke:#000000;stroke-width:6;stroke-linecap:round;stroke-linejoin:round;stroke-miterlimit:10;stroke-dasharray:none;stroke-opacity:1"
         id="path175" />
    </g>
    <path
       d="m 269.09475,478.84799 5.52,13.68 5.88,-4.2 z"
       style="fill:#000000;fill-opacity:1;fill-rule:evenodd;stroke:none"
       id="path177" />
    <g
       id="g179"
       transform="matrix(0.12,0,0,-0.12,110.81475,1000.488)">
      <path
         d="m 1405,4351 v 258"
         style="fill:none;stroke:#000000;stroke-width:9;stroke-linecap:round;stroke-linejoin:round;stroke-miterlimit:10;stroke-dasharray:none;stroke-opacity:1"
         id="path181" />
    </g>
    <text
       xml:space="preserve"
       transform="matrix(1,0,0,-1,184.13715,466.84643)"
       style="font-variant:normal;font-weight:normal;font-size:26.76px;font-family:'Times New Roman';-inkscape-font-specification:TimesNewRoman;text-align:end;writing-mode:lr-tb;text-anchor:end;white-space:pre;inline-size:104.098;fill:#000000;fill-opacity:1;fill-rule:nonzero;stroke:none"
       id="text185"
       x="57.466057"
       y="0"><tspan
         x="57.466057"
         y="0"
         id="tspan1114">ΔNкд</tspan></text>
    <g
       id="g191"
       transform="matrix(0.12,0,0,-0.12,110.81475,1000.488)">
      <path
         d="M 4660,5603 V 1508"
         style="fill:none;stroke:#000000;stroke-width:12;stroke-linecap:round;stroke-linejoin:round;stroke-miterlimit:10;stroke-dasharray:none;stroke-opacity:1"
         id="path193" />
    </g>
    <g
       id="g195"
       transform="matrix(0.12,0,0,-0.12,110.81475,1000.488)">
      <path
         d="m 1327,3740 v 423"
         style="fill:none;stroke:#000000;stroke-width:9;stroke-linecap:round;stroke-linejoin:round;stroke-miterlimit:10;stroke-dasharray:none;stroke-opacity:1"
         id="path197" />
    </g>
  </g>
</svg>
