<?xml version="1.0" encoding="UTF-8" standalone="no"?>
<svg
   viewBox="0 0 16 16"
   version="1.1"
   id="svg6"
   sodipodi:docname="archivator_red_16.svg"
   inkscape:version="1.2.1 (9c6d41e410, 2022-07-14)"
   xmlns:inkscape="http://www.inkscape.org/namespaces/inkscape"
   xmlns:sodipodi="http://sodipodi.sourceforge.net/DTD/sodipodi-0.dtd"
   xmlns="http://www.w3.org/2000/svg"
   xmlns:svg="http://www.w3.org/2000/svg">
  <sodipodi:namedview
     id="namedview8"
     pagecolor="#ffffff"
     bordercolor="#666666"
     borderopacity="1.0"
     inkscape:showpageshadow="2"
     inkscape:pageopacity="0.0"
     inkscape:pagecheckerboard="0"
     inkscape:deskcolor="#d1d1d1"
     showgrid="false"
     inkscape:zoom="90.509668"
     inkscape:cx="7.0379222"
     inkscape:cy="5.5187475"
     inkscape:window-width="1920"
     inkscape:window-height="1030"
     inkscape:window-x="0"
     inkscape:window-y="0"
     inkscape:window-maximized="1"
     inkscape:current-layer="svg6" />
  <defs
     id="defs3051">
    <linearGradient
       id="linearGradient1067"
       inkscape:swatch="gradient">
      <stop
         style="stop-color:#000000;stop-opacity:1;"
         offset="0"
         id="stop1063" />
      <stop
         style="stop-color:#000000;stop-opacity:0;"
         offset="1"
         id="stop1065" />
    </linearGradient>
    <style
       type="text/css"
       id="current-color-scheme">
      .ColorScheme-Text {
        color:#232629;
      }
      .ColorScheme-NegativeText {
        color:#da4453;
      }
      </style>
  </defs>
  <path
     style="color:#000000;fill:#000000;fill-rule:evenodd;-inkscape-stroke:none;fill-opacity:1"
     d="M 7.7089844,1.6894531 C 4.2353599,1.754764 1.456458,4.6236907 1.5,8.0976563 1.543542,11.571622 4.3930173,14.367475 7.8671875,14.345703 11.219619,14.324695 13.902005,11.667894 14.089844,8.3613281 l -0.01486,-0.00263 0.03597,-0.4207126 -0.03522,-0.4136483 0.0023,-0.00676 C 13.807521,4.2167085 11.060924,1.6264301 7.7089844,1.6894531 Z m 0.019531,1 c 2.7579196,-0.051854 4.9850486,2.0162483 5.3144536,4.6972656 l 0.182556,-0.2766543 -0.179548,0.2743065 0.04469,0.3685919 0.05073,0.3561723 -0.0686,0.4104976 C 12.811011,11.2084 10.619918,13.328416 7.8613281,13.345703 4.9253711,13.364102 2.5367966,11.019768 2.5,8.0839844 2.4632034,5.1482003 4.7930198,2.7446462 7.7285154,2.6894531 Z"
     id="path357"
     sodipodi:nodetypes="ssscccccssccccccsss" />
  <text
     xml:space="preserve"
     style="font-style:normal;font-weight:normal;font-size:10.6667px;line-height:125%;font-family:sans-serif;letter-spacing:0px;word-spacing:0px;fill:#000000;fill-opacity:1;stroke:none;stroke-width:1px;stroke-linecap:butt;stroke-linejoin:miter;stroke-opacity:1"
     x="4.4583268"
     y="11.183043"
     id="text4319"><tspan
       sodipodi:role="line"
       id="tspan4317"
       x="4.4583268"
       y="11.183043"
       style="font-size:10.6667px">А</tspan></text>
  <path
     style="fill:#ff0000;fill-opacity:1;stroke:#000000;stroke-width:0.0469784;stroke-linecap:round;stroke-linejoin:round;stroke-opacity:1;paint-order:stroke fill markers"
     d="M 7.2257474,13.297014 C 6.4775937,13.183683 5.9158507,13.0041 5.3230282,12.688736 3.9454835,11.955924 2.9821992,10.666511 2.6231027,9.0747269 2.5155827,8.5981179 2.5161309,7.4562775 2.6241177,6.9605824 3.072024,4.9045443 4.5878259,3.3479526 6.6291261,2.8478004 7.1598826,2.7177563 8.1107543,2.6850168 8.6459577,2.7783588 c 1.1520656,0.2009259 2.1328943,0.7177711 2.9134873,1.5352549 0.826629,0.865695 1.281089,1.8401214 1.471546,3.1552017 0.08277,0.5715155 0.0848,0.650749 0.02659,1.038563 -0.210484,1.4022639 -0.623802,2.3043156 -1.456121,3.1779386 -0.767884,0.80599 -1.6395567,1.296147 -2.7256029,1.532654 -0.3147067,0.06853 -1.3819885,0.119658 -1.6501057,0.07904 z M 5.8978923,10.021298 6.3418639,8.8614697 7.8446908,8.8612045 9.3475176,8.8609393 9.4533194,9.1371529 c 0.05819,0.1519175 0.2634216,0.678933 0.4560684,1.1711461 l 0.3502672,0.894932 h 0.50493 c 0.277711,-8e-6 0.504929,-0.01516 0.504929,-0.03368 0,-0.01852 -0.663257,-1.7437465 -1.4739063,-3.8338441 L 8.3217015,3.5355339 H 7.8668829 7.4120647 L 5.9394372,7.3141358 c -0.809945,2.078231 -1.4733469,3.8041122 -1.4742264,3.8352922 -0.00123,0.04357 0.1130255,0.0538 0.4935553,0.04419 l 0.4951546,-0.0125 z"
     id="path5123" />
  <path
     style="fill:#ff0000;fill-opacity:1;stroke:#000000;stroke-width:0.0491299;stroke-linecap:round;stroke-linejoin:round;stroke-opacity:1;paint-order:stroke fill markers"
     d="m 6.6667818,7.9610217 c 0,-0.01641 0.2048708,-0.5869231 0.4552682,-1.2678077 0.4543004,-1.2353401 0.6894092,-1.9528394 0.6961026,-2.1243486 0.00194,-0.049857 0.1130544,0.2338629 0.2469081,0.6304891 0.1338538,0.396626 0.4111852,1.1782416 0.6162921,1.7369233 0.205107,0.5586819 0.3729217,1.0245139 0.3729217,1.0351825 0,0.010669 -0.5371858,0.019397 -1.1937463,0.019397 -0.6565605,0 -1.1937464,-0.013427 -1.1937464,-0.029836 z"
     id="path5125" />
</svg>
