<?xml version="1.0" encoding="UTF-8" standalone="no"?>
<svg
   viewBox="0 0 24 24"
   version="1.1"
   id="svg6"
   sodipodi:docname="moment_blue_24.svg"
   inkscape:version="1.2.1 (9c6d41e410, 2022-07-14)"
   width="24"
   height="24"
   xmlns:inkscape="http://www.inkscape.org/namespaces/inkscape"
   xmlns:sodipodi="http://sodipodi.sourceforge.net/DTD/sodipodi-0.dtd"
   xmlns="http://www.w3.org/2000/svg"
   xmlns:svg="http://www.w3.org/2000/svg">
  <sodipodi:namedview
     id="namedview8"
     pagecolor="#ffffff"
     bordercolor="#666666"
     borderopacity="1.0"
     inkscape:showpageshadow="2"
     inkscape:pageopacity="0.0"
     inkscape:pagecheckerboard="0"
     inkscape:deskcolor="#d1d1d1"
     showgrid="false"
     inkscape:zoom="22.627417"
     inkscape:cx="8.4189901"
     inkscape:cy="10.84967"
     inkscape:window-width="1920"
     inkscape:window-height="1030"
     inkscape:window-x="0"
     inkscape:window-y="0"
     inkscape:window-maximized="1"
     inkscape:current-layer="svg6" />
  <defs
     id="defs3051">
    <linearGradient
       id="linearGradient1067"
       inkscape:swatch="gradient">
      <stop
         style="stop-color:#000000;stop-opacity:1;"
         offset="0"
         id="stop1063" />
      <stop
         style="stop-color:#000000;stop-opacity:0;"
         offset="1"
         id="stop1065" />
    </linearGradient>
    <style
       type="text/css"
       id="current-color-scheme">
      .ColorScheme-Text {
        color:#232629;
      }
      .ColorScheme-NegativeText {
        color:#da4453;
      }
      </style>
  </defs>
  <g
     id="g701"
     transform="matrix(1.731317,0,0,1.731317,-1.5685719,-1.843471)">
    <path
       style="color:#000000;fill:#000000;fill-opacity:1;fill-rule:evenodd"
       d="M 7.7089844,1.6894531 C 4.2353599,1.754764 1.456458,4.6236907 1.5,8.0976563 1.543542,11.571622 4.3930173,14.367475 7.8671875,14.345703 11.219619,14.324695 13.902005,11.667894 14.089844,8.3613281 l -0.01486,-0.00263 0.03597,-0.4207126 -0.03522,-0.4136483 0.0023,-0.00676 C 13.807521,4.2167085 11.060924,1.6264301 7.7089844,1.6894531 Z m 0.019531,1 c 2.7579196,-0.051854 4.9850486,2.0162483 5.3144536,4.6972656 l 0.182556,-0.2766543 -0.179548,0.2743065 0.04469,0.3685919 0.05073,0.3561723 -0.0686,0.4104976 C 12.811011,11.2084 10.619918,13.328416 7.8613281,13.345703 4.9253711,13.364102 2.5367966,11.019768 2.5,8.0839844 2.4632034,5.1482003 4.7930198,2.7446462 7.7285154,2.6894531 Z"
       id="path357"
       sodipodi:nodetypes="ssscccccssccccccsss" />
    <text
       xml:space="preserve"
       style="font-size:8px;line-height:125%;font-family:sans-serif;letter-spacing:0px;word-spacing:0px;fill:none;stroke:#000000;stroke-width:1px;stroke-linecap:butt;stroke-linejoin:miter;stroke-opacity:1"
       x="4.239233"
       y="10.760515"
       id="text9773"><tspan
         sodipodi:role="line"
         id="tspan9771"
         x="4.239233"
         y="10.760515"
         style="font-size:8px">M</tspan></text>
    <path
       style="fill:#00ffff;fill-opacity:1;stroke:#000000;stroke-width:0.0332187;stroke-linecap:round;stroke-linejoin:round;stroke-opacity:1;paint-order:stroke fill markers"
       d="M 7.296875,13.308607 C 5.7356769,13.142398 4.291923,12.276124 3.4215179,10.983334 3.1869768,10.634976 2.8838924,10.014858 2.7694414,9.64917 2.3634276,8.351894 2.4585772,6.9433931 3.0337606,5.736451 3.330877,5.1129934 3.6507954,4.6761046 4.185196,4.164021 4.8621816,3.5153068 5.6491072,3.0836715 6.5605969,2.861094 9.3918494,2.1697275 12.174359,3.8660536 12.904772,6.7287494 c 0.03368,0.1320003 0.09733,0.4922947 0.141443,0.8006543 l 0.08021,0.5606538 -0.07962,0.519789 c -0.123682,0.8074422 -0.267328,1.2803238 -0.564132,1.8571145 -0.754597,1.466435 -2.096476,2.467058 -3.732671,2.783407 -0.2585963,0.05 -1.1826603,0.08703 -1.453125,0.05824 z M 6.1949697,9.9695869 6.203125,8.6735487 6.6875,9.9690484 l 0.484375,1.2954996 0.6579731,5.38e-4 0.6579728,5.39e-4 0.4982772,-1.3112085 0.4982769,-1.3112087 0.00815,1.3112087 0.00815,1.3112085 h 0.859039 0.859036 V 7.9057984 4.5459717 L 10.259038,4.5542359 9.2993265,4.5625 9.1664856,4.90625 C 9.0934228,5.0953125 8.7694337,5.9401712 8.4465097,6.7837137 L 7.859375,8.3174278 7.1527669,6.4399637 6.4461584,4.5625 5.4730792,4.5542423 4.5,4.5459846 v 3.3598201 3.3598203 h 0.8434071 0.8434073 z"
       id="path9775" />
  </g>
</svg>
