<?xml version="1.0" encoding="UTF-8" standalone="no"?>
<svg
   inkscape:version="1.4 (e7c3feb100, 2024-10-09)"
   sodipodi:docname="media-playback-stop_4.svg"
   id="svg5"
   version="1.1"
   viewBox="0 0 16 16"
   xmlns:inkscape="http://www.inkscape.org/namespaces/inkscape"
   xmlns:sodipodi="http://sodipodi.sourceforge.net/DTD/sodipodi-0.dtd"
   xmlns="http://www.w3.org/2000/svg"
   xmlns:svg="http://www.w3.org/2000/svg"
   xmlns:rdf="http://www.w3.org/1999/02/22-rdf-syntax-ns#"
   xmlns:cc="http://creativecommons.org/ns#"
   xmlns:dc="http://purl.org/dc/elements/1.1/">
  <metadata
     id="metadata11">
    <rdf:RDF>
      <cc:Work
         rdf:about="">
        <dc:format>image/svg+xml</dc:format>
        <dc:type
           rdf:resource="http://purl.org/dc/dcmitype/StillImage" />
      </cc:Work>
    </rdf:RDF>
  </metadata>
  <defs
     id="defs9" />
  <sodipodi:namedview
     inkscape:current-layer="svg5"
     inkscape:window-maximized="1"
     inkscape:window-y="0"
     inkscape:window-x="0"
     inkscape:cy="8.7502931"
     inkscape:cx="8"
     inkscape:zoom="53.3125"
     showgrid="false"
     id="namedview7"
     inkscape:window-height="2076"
     inkscape:window-width="3840"
     inkscape:pageshadow="2"
     inkscape:pageopacity="0"
     guidetolerance="10"
     gridtolerance="10"
     objecttolerance="10"
     borderopacity="1"
     bordercolor="#666666"
     pagecolor="#ffffff"
     inkscape:showpageshadow="2"
     inkscape:pagecheckerboard="0"
     inkscape:deskcolor="#d1d1d1" />
  <style
     id="current-color-scheme"
     type="text/css">
        .ColorScheme-Text {
            color:#232629;
        }
    </style>
  <path
     id="path836"
     d="M 2,2 H 14 V 14 H 2 Z"
     style="fill:none;fill-rule:evenodd;stroke:#000000;stroke-width:1px;stroke-linecap:butt;stroke-linejoin:miter;stroke-opacity:1" />
  <path
     style="fill:none;fill-rule:evenodd;stroke:#000000;stroke-width:0.977238px;stroke-linecap:butt;stroke-linejoin:miter;stroke-opacity:1"
     d="M 13.62586,2.0177361 2.3366238,13.363273 2.2240802,12.819311 Z"
     id="path1"
     sodipodi:nodetypes="cccc" />
  <path
     style="fill:#000000;stroke:#000000;stroke-width:0.0202047;stroke-linecap:round;stroke-linejoin:round;paint-order:stroke fill markers"
     d=""
     id="path3" />
  <path
     style="fill:#000000;fill-opacity:0;stroke:#000000;stroke-width:0.0840092;stroke-linecap:round;stroke-linejoin:round;paint-order:stroke fill markers"
     d="M 2.5041032,7.5073142 V 2.5134818 h 5.0926143 c 2.8009375,0 5.0926145,0.00396 5.0926145,0.0088 0,0.00484 -2.196718,2.1584488 -4.8815946,4.7858001 C 5.1228605,9.9354311 2.8311841,12.178697 2.7151231,12.293114 l -0.2110199,0.208033 z"
     id="path2" />
  <path
     style="fill:#000000;fill-opacity:0;stroke:#000000;stroke-width:0.0840092;stroke-linecap:round;stroke-linejoin:round;paint-order:stroke fill markers"
     d="M 2.5603751,7.4697351 V 2.5697538 h 5.0117157 5.0117152 l -0.04946,0.051583 c -0.0272,0.02837 -0.384321,0.3765533 -0.793597,0.7737397 C 11.331474,3.7922626 10.37935,4.7208737 9.624918,5.4586566 7.4679495,7.5680248 2.9254853,12.011463 2.7338804,12.19947 l -0.1735053,0.170246 z"
     id="path4" />
  <path
     style="fill:#000000;fill-opacity:0;stroke:#000000;stroke-width:0.0840092;stroke-linecap:round;stroke-linejoin:round;paint-order:stroke fill markers"
     d="M 2.6166471,7.4312287 V 2.6260258 H 7.5356359 12.454625 L 12.27655,2.8014962 C 12.17861,2.8980049 11.570926,3.4909341 10.926143,4.1191168 10.28136,4.7472994 8.221486,6.7595453 6.3486454,8.5907742 4.4758049,10.422003 2.8699432,11.991415 2.780064,12.078356 l -0.1634169,0.158076 z"
     id="path5" />
  <path
     style="fill:#000000;fill-opacity:0;stroke:#000000;stroke-width:0.0840092;stroke-linecap:round;stroke-linejoin:round;paint-order:stroke fill markers"
     d="M 2.6729191,7.3946067 V 2.6822978 l 4.8253224,2.008e-4 4.8253225,2.008e-4 -0.225088,0.2211332 C 11.974678,3.0254558 10.978688,3.9981674 9.8851661,5.0654137 8.791644,6.1326601 6.7827343,8.0939101 5.4209223,9.423747 4.0591102,10.753584 2.8837046,11.901321 2.8089097,11.974274 l -0.1359906,0.132642 z"
     id="path6" />
  <path
     style="fill:#000000;fill-opacity:0;stroke:#000000;stroke-width:0.0840092;stroke-linecap:round;stroke-linejoin:round;paint-order:stroke fill markers"
     d="M 2.7291911,7.3570585 V 2.7385698 l 4.7315357,3.776e-4 4.7315362,3.776e-4 -0.243846,0.2395748 C 11.767075,3.157066 3.6438188,11.084373 2.855803,11.852182 l -0.1266119,0.123365 z"
     id="path7" />
  <path
     style="fill:#000000;fill-opacity:0;stroke:#000000;stroke-width:0.0840092;stroke-linecap:round;stroke-linejoin:round;paint-order:stroke fill markers"
     d="M 2.7854631,7.319505 V 2.7948417 H 7.4231165 12.06077 L 11.835778,3.0174726 C 11.669441,3.1820635 3.6720714,10.982148 2.9026964,11.730186 l -0.1172333,0.113982 z"
     id="path8" />
  <path
     style="fill:#000000;fill-opacity:0;stroke:#000000;stroke-width:0.0840092;stroke-linecap:round;stroke-linejoin:round;paint-order:stroke fill markers"
     d="M 2.8417351,7.2819451 V 2.8511137 H 7.3856056 11.929476 L 11.695102,3.0831284 C 11.517104,3.2593336 3.498513,11.07578 2.9495897,11.60817 l -0.1078546,0.104606 z"
     id="path9" />
  <path
     style="fill:#000000;fill-opacity:0;stroke:#000000;stroke-width:0.0840092;stroke-linecap:round;stroke-linejoin:round;paint-order:stroke fill markers"
     d="M 2.898007,7.2444305 V 2.9073857 h 4.4500802 4.4500798 l -0.224992,0.222581 C 11.285899,3.4141637 3.6069702,10.895801 3.0058617,11.477164 L 2.898007,11.581475 Z"
     id="path10" />
  <path
     style="fill:#000000;fill-opacity:0;stroke:#000000;stroke-width:0.0840092;stroke-linecap:round;stroke-linejoin:round;paint-order:stroke fill markers"
     d="M 2.954279,7.2068622 V 2.9636577 h 4.3562894 4.3562896 l -0.21561,0.2131744 C 11.085075,3.5388703 3.5930693,10.834481 3.052755,11.355168 l -0.098476,0.0949 z"
     id="path11" />
  <path
     style="fill:#000000;fill-opacity:0;stroke:#000000;stroke-width:0.0840092;stroke-linecap:round;stroke-linejoin:round;paint-order:stroke fill markers"
     d="M 3.010551,7.1692832 V 3.0199297 H 7.2730493 11.535548 L 11.329321,3.2237758 C 10.964325,3.5845589 3.4919896,10.856901 3.0996483,11.233186 l -0.089097,0.08545 z"
     id="path12" />
  <path
     style="fill:#000000;fill-opacity:0;stroke:#000000;stroke-width:0.0840092;stroke-linecap:round;stroke-linejoin:round;paint-order:stroke fill markers"
     d="M 3.066823,7.1317685 V 3.0762016 H 7.2355346 11.404246 L 11.19802,3.279969 c -0.397761,0.3930179 -7.6080842,7.405978 -8.0420997,7.821969 l -0.089097,0.0854 z"
     id="path13" />
  <path
     style="fill:#000000;fill-opacity:0;stroke:#000000;stroke-width:0.0840092;stroke-linecap:round;stroke-linejoin:round;paint-order:stroke fill markers"
     d="M 3.123095,7.0941751 V 3.1324736 l 4.0750293,5.266e-4 4.0750297,5.267e-4 -0.253224,0.2481135 C 10.115159,4.2681523 3.4443155,10.752902 3.2028136,10.980686 l -0.079719,0.07519 z"
     id="path14" />
  <path
     style="fill:#000000;fill-opacity:0;stroke:#000000;stroke-width:0.0840092;stroke-linecap:round;stroke-linejoin:round;paint-order:stroke fill markers"
     d="M 3.1793669,7.0549376 V 3.1887456 H 7.1604952 11.141623 L 10.954165,3.3736945 C 10.302643,4.0164926 3.3886007,10.733721 3.2590856,10.849726 l -0.079719,0.0714 z"
     id="path15" />
  <path
     style="fill:#000000;fill-opacity:0;stroke:#000000;stroke-width:0.0840092;stroke-linecap:round;stroke-linejoin:round;paint-order:stroke fill markers"
     d="M 3.2356389,7.0187496 V 3.2450176 L 7.123095,3.24568 11.010551,3.2463425 10.747948,3.5029481 C 9.0641435,5.1483011 3.4743603,10.575014 3.2961152,10.73739 l -0.060476,0.05509 z"
     id="path16" />
  <path
     style="fill:#000000;fill-opacity:0;stroke:#000000;stroke-width:0.0840092;stroke-linecap:round;stroke-linejoin:round;paint-order:stroke fill markers"
     d="M 3.2919109,6.9809953 V 3.3012896 H 7.080891 c 2.083939,0 3.78898,0.00253 3.78898,0.00563 0,0.015935 -7.3385111,7.1415634 -7.5266524,7.3083114 l -0.051308,0.04547 z"
     id="path17" />
  <path
     style="fill:#000000;fill-opacity:0;stroke:#000000;stroke-width:0.0840092;stroke-linecap:round;stroke-linejoin:round;paint-order:stroke fill markers"
     d="M 3.3481829,6.940211 V 3.3575615 h 3.7074793 3.7074788 l -0.03573,0.040338 C 10.707756,3.4200859 10.601776,3.5192653 10.491898,3.6182984 10.382019,3.7173316 9.5337191,4.5369387 8.6067862,5.4396475 7.6798533,6.3423563 6.2419695,7.7391518 5.4114889,8.5436374 4.5810082,9.3481232 3.7819144,10.122556 3.6357249,10.2646 c -0.1461895,0.142043 -0.2706912,0.25826 -0.2766705,0.25826 -0.00598,0 -0.010872,-1.6121918 -0.010872,-3.582649 z"
     id="path18" />
  <path
     style="fill:#000000;fill-opacity:0;stroke:#000000;stroke-width:0.0840092;stroke-linecap:round;stroke-linejoin:round;paint-order:stroke fill markers"
     d="m 3.3669402,10.349049 c 0,-0.05919 0.00843,-0.107548 0.018757,-0.107548 0.012436,0 0.018757,-1.1504497 0.018757,-3.4138339 V 3.4138335 H 7.0187187 10.632982 L 10.38097,3.6522944 C 10.242362,3.7834478 9.9981243,4.0181063 9.8382181,4.1737577 9.4278239,4.573232 5.1533677,8.7206145 4.4079719,9.4425701 4.0675264,9.7723097 3.6940211,10.135359 3.5779601,10.249347 l -0.2110199,0.207251 z"
     id="path19" />
  <path
     style="fill:#000000;fill-opacity:0;stroke:#000000;stroke-width:0.0840092;stroke-linecap:round;stroke-linejoin:round;paint-order:stroke fill markers"
     d="m 3.4310302,10.279015 c 0.00783,-0.02579 0.018798,-1.5683468 0.024379,-3.4279013 L 3.4655556,3.4701055 H 6.9795515 10.493547 L 10.245601,3.7088977 C 10.109231,3.8402333 9.866823,4.0752443 9.7069168,4.2311443 9.0572642,4.8645206 3.7227123,10.036603 3.5754716,10.17585 3.456516,10.288347 3.4203607,10.314171 3.4310302,10.279015 Z"
     id="path20" />
  <path
     style="fill:#000000;fill-opacity:0;stroke:#000000;stroke-width:0.0840092;stroke-linecap:round;stroke-linejoin:round;paint-order:stroke fill markers"
     d="m 3.4902475,9.648879 c 0.00467,-0.2982081 0.013632,-1.7977653 0.019923,-3.3323491 l 0.011439,-2.7901524 h 3.4115282 c 1.8763407,0 3.4115283,0.00312 3.4115283,0.00693 0,0.00899 -4.898395,4.7613002 -6.7655665,6.5637975 l -0.097337,0.09397 z"
     id="path21" />
  <path
     style="fill:#000000;fill-opacity:0;stroke:#000000;stroke-width:0.0840092;stroke-linecap:round;stroke-linejoin:round;paint-order:stroke fill markers"
     d="M 3.544612,8.8065651 C 3.550382,8.1153576 3.560227,6.6572098 3.56648,5.5662368 L 3.577849,3.5826495 h 3.3271363 c 1.8299249,0 3.3271367,0.00285 3.3271367,0.00634 0,0.00349 -0.229946,0.2250579 -0.5109911,0.4923798 C 9.4400865,4.3486912 8.9188672,4.8504357 8.5628663,5.1963571 7.2076215,6.5132307 3.8480692,9.7657908 3.6146535,9.9869835 l -0.08054,0.076324 z"
     id="path22" />
  <path
     style="fill:#000000;fill-opacity:0;stroke:#000000;stroke-width:0.0840092;stroke-linecap:round;stroke-linejoin:round;paint-order:stroke fill markers"
     d="m 3.5993113,8.056272 c 0.00638,-1.031653 0.016979,-2.4475967 0.023564,-3.1465416 L 3.6348473,3.6389215 H 6.8815802 10.128313 L 10.02547,3.7277465 C 9.8838499,3.8500612 9.2797625,4.4311423 7.2028136,6.4429021 5.212593,8.3706558 3.7669555,9.7672491 3.6591402,9.866354 l -0.071421,0.065651 z"
     id="path23" />
  <path
     style="fill:#000000;fill-opacity:0;stroke:#000000;stroke-width:0.0840092;stroke-linecap:round;stroke-linejoin:round;paint-order:stroke fill markers"
     d="m 3.6554384,7.4841735 c 0.00653,-1.2740914 0.017357,-2.6478312 0.024065,-3.052755 L 3.6916995,3.6951934 H 6.834979 9.9782584 L 9.6692808,3.9906213 C 9.3475258,4.2982664 7.9354739,5.662001 5.9460727,7.5864294 4.5965879,8.8918409 3.8178014,9.6420753 3.715678,9.7350528 l -0.072109,0.065651 z"
     id="path24" />
  <path
     style="fill:#000000;fill-opacity:0;stroke:#000000;stroke-width:0.0840092;stroke-linecap:round;stroke-linejoin:round;paint-order:stroke fill markers"
     d="m 3.6996455,8.4540102 c 0.00568,-1.5590659 0.037185,-4.6847837 0.047329,-4.6949276 0.00425,-0.00425 1.3754245,-0.00559 3.0470503,-0.00298 L 9.8333445,3.7608441 9.5122148,4.07034 C 9.3355933,4.2405627 8.0811213,5.4513793 6.7244991,6.7610435 4.0015949,9.3896972 3.8555692,9.5304184 3.7608441,9.617038 l -0.065651,0.060033 z"
     id="path25" />
  <path
     style="fill:#000000;fill-opacity:0;stroke:#000000;stroke-width:0.0840092;stroke-linecap:round;stroke-linejoin:round;paint-order:stroke fill markers"
     d="m 3.7516946,7.9609065 c 0.015639,-2.0610534 0.040374,-4.1539853 0.04915,-4.1587811 0.00379,-0.00207 1.3327282,4.537e-4 2.9531935,0.00561 l 2.9463006,0.00938 -2.9428622,2.841735 c -1.6185745,1.562955 -2.9597386,2.8536864 -2.980365,2.868293 -0.03744,0.026513 -0.037482,0.023898 -0.025417,-1.5662369 z"
     id="path26" />
  <path
     style="fill:#000000;fill-opacity:0;stroke:#000000;stroke-width:0.0840092;stroke-linecap:round;stroke-linejoin:round;paint-order:stroke fill markers"
     d="m 3.8067715,7.5873388 c 0.01627,-2.1736253 0.03639,-3.7181293 0.048594,-3.7302762 0.00475,-0.00473 1.2917286,-0.00299 2.8599434,0.00386 L 9.5666084,3.873388 8.7127546,4.6987104 C 7.9977285,5.389844 6.0920253,7.2281643 4.2223445,9.0303464 L 3.7928718,9.4443142 Z"
     id="path27" />
  <path
     style="fill:#000000;fill-opacity:0;stroke:#000000;stroke-width:0.0840092;stroke-linecap:round;stroke-linejoin:round;paint-order:stroke fill markers"
     d="m 3.8495751,8.6982925 c 0.015904,-2.2929127 0.04733,-4.771146 0.060674,-4.784659 0.021664,-0.021939 5.5173079,0.00699 5.5037225,0.028976 -0.00581,0.0094 -1.2020631,1.1658676 -2.6583402,2.5699259 C 5.299354,7.9165939 4.0487691,9.1230109 3.9765533,9.1934623 L 3.8452521,9.3215557 Z"
     id="path28" />
  <path
     style="fill:#000000;fill-opacity:0;stroke:#000000;stroke-width:0.0840092;stroke-linecap:round;stroke-linejoin:round;paint-order:stroke fill markers"
     d="m 3.9010821,8.3376319 c 0.00579,-0.4745604 0.019619,-1.6478312 0.030733,-2.6072685 0.011113,-0.9594373 0.024968,-1.7521436 0.030787,-1.7615696 0.012849,-0.020811 5.2188565,0.00194 5.2759391,0.023052 0.034795,0.012872 0.018165,0.034607 -0.1542846,0.2016505 C 8.8990398,4.3729065 4.1658983,8.9362478 3.9804477,9.1142075 l -0.089892,0.086261 z"
     id="path29" />
  <path
     style="fill:#000000;fill-opacity:0;stroke:#000000;stroke-width:0.0840092;stroke-linecap:round;stroke-linejoin:round;paint-order:stroke fill markers"
     d="m 3.9486696,8.7002108 c 2.701e-4,-0.3881056 0.027363,-2.5875674 0.04802,-3.8983351 l 0.012563,-0.7971864 2.569084,0.012554 c 1.4129962,0.0069 2.5726387,0.016108 2.5769829,0.020453 0.00735,0.00735 -4.8844458,4.7344793 -5.1063783,4.9344962 L 3.948417,9.0627905 Z"
     id="path30" />
  <path
     style="fill:#000000;fill-opacity:0;stroke:#000000;stroke-width:0.0840092;stroke-linecap:round;stroke-linejoin:round;paint-order:stroke fill markers"
     d="M 4.0045792,8.3737268 C 4.0044556,7.7434941 4.0357317,5.2974001 4.0535354,4.544883 l 0.011627,-0.4914592 1.8876999,0.00889 c 1.0382352,0.00489 2.1693438,0.013916 2.5135749,0.020057 L 9.092312,4.0935358 9.012981,4.1710348 C 8.963558,4.2193168 8.930364,4.2398268 8.924933,4.2254378 8.9200722,4.2125587 8.4003179,4.7020703 7.7498784,5.332121 7.1083924,5.9534991 6.1193598,6.9089606 5.552028,7.455369 4.2599442,8.6998004 4.1199975,8.834013 4.056272,8.8898388 l -0.051583,0.045188 z"
     id="path31" />
  <path
     style="fill:#000000;fill-opacity:0;stroke:#000000;stroke-width:0.0840092;stroke-linecap:round;stroke-linejoin:round;paint-order:stroke fill markers"
     d="m 4.0609613,8.0370172 c 0,-0.9002609 0.030849,-3.2149034 0.048592,-3.6458946 L 4.1214433,4.102292 6.3467706,4.116906 C 7.5707008,4.124946 8.6607264,4.137167 8.76905,4.144068 8.9419502,4.155083 8.9597595,4.159287 8.914885,4.178487 8.842467,4.2094729 8.7953047,4.2540584 6.8464244,6.1339277 6.1036342,6.8504152 5.2679953,7.6557093 4.989449,7.9234703 4.7109027,8.1912311 4.3880422,8.5035487 4.2719812,8.6175094 L 4.0609613,8.8247105 Z"
     id="path32" />
  <path
     style="fill:#000000;fill-opacity:0;stroke:#000000;stroke-width:0.0840092;stroke-linecap:round;stroke-linejoin:round;paint-order:stroke fill markers"
     d="M 4.124348,6.93075 C 4.136628,5.3084992 4.157659,4.1707209 4.175603,4.157825 4.191836,4.146159 8.597841,4.184863 8.6849895,4.197438 L 8.7791225,4.2110199 8.60996,4.3695705 C 8.5169204,4.4567733 7.5382674,5.3979222 6.4351752,6.4610125 5.3320831,7.5241028 4.3578791,8.4613931 4.2702774,8.5438801 L 4.1110016,8.6938564 Z"
     id="path33" />
  <path
     style="fill:#000000;fill-opacity:0;stroke:#000000;stroke-width:0.0840092;stroke-linecap:round;stroke-linejoin:round;paint-order:stroke fill markers"
     d="m 4.1687992,7.7304773 c 0.00579,-1.0377793 0.040947,-3.5150572 0.05001,-3.5241203 0.00755,-0.00755 4.4255539,0.033299 4.4333303,0.040991 0.00445,0.00441 -4.0615705,3.9216309 -4.3660902,4.20631 L 4.1641266,8.5676369 Z"
     id="path34" />
  <path
     style="fill:#000000;fill-opacity:0;stroke:#000000;stroke-width:0.0840092;stroke-linecap:round;stroke-linejoin:round;paint-order:stroke fill markers"
     d="m 4.2202454,7.4466589 c 0.016623,-1.4224633 0.044966,-3.1932876 0.051172,-3.1970821 0.0069,-0.00422 2.5876392,0.023898 3.5588109,0.038771 L 8.5889433,4.2999667 8.299161,4.5766051 C 8.1397807,4.7287561 8.0004415,4.8498427 7.9895184,4.8456863 7.9785953,4.8415299 7.809634,4.9924575 7.6140491,5.181081 6.1755459,6.5683834 4.3967461,8.2772911 4.2707303,8.3930348 l -0.062212,0.057141 z"
     id="path35" />
  <path
     style="fill:#000000;fill-opacity:0;stroke:#000000;stroke-width:0.0840092;stroke-linecap:round;stroke-linejoin:round;paint-order:stroke fill markers"
     d="m 4.2755751,7.1559203 c 0.017197,-1.5022031 0.041432,-2.841431 0.051605,-2.8516036 0.00981,-0.00981 3.1245381,0.02408 3.7103347,0.040369 L 8.4595545,4.3564206 8.2813599,4.5239423 C 8.1833529,4.6160792 8.0525205,4.7304534 7.9906213,4.778107 7.8390574,4.8947899 7.8265988,4.9065297 6.4337632,6.2451271 4.7720643,7.8421179 4.3591639,8.2374224 4.3068924,8.2813599 l -0.04463,0.037515 z"
     id="path36" />
  <path
     style="fill:#000000;fill-opacity:0;stroke:#000000;stroke-width:0.0840092;stroke-linecap:round;stroke-linejoin:round;paint-order:stroke fill markers"
     d="M 4.3234863,7.6592418 C 4.3233802,6.9443254 4.3586079,4.63658 4.3722037,4.4677967 l 0.011046,-0.137127 0.096769,0.010464 c 0.053223,0.00576 0.8691021,0.018941 1.8130645,0.029303 1.709882,0.018768 2.033899,0.027999 2.0157117,0.057427 -0.00527,0.00852 -0.1254358,0.1145456 -0.2670407,0.2356058 C 7.7306759,4.9294148 7.858424,4.808695 5.9297203,6.659305 5.0644544,7.489536 4.3490969,8.1716295 4.3400368,8.1750683 c -0.00921,0.0035 -0.016507,-0.223836 -0.016551,-0.5158265 z"
     id="path37" />
  <path
     style="fill:#000000;fill-opacity:0;stroke:#000000;stroke-width:0.0840092;stroke-linecap:round;stroke-linejoin:round;paint-order:stroke fill markers"
     d="M 4.3799491,7.3140627 C 4.3800766,6.4595014 4.4123275,4.4962234 4.427312,4.4308306 l 0.00981,-0.042792 0.3699523,0.010459 c 0.2034737,0.00575 1.0409957,0.019101 1.8611598,0.029663 0.8201641,0.010562 1.496866,0.025112 1.503782,0.032333 0.00692,0.00722 -0.077934,0.090796 -0.1885569,0.1857237 C 7.8728326,4.7411447 7.6772562,4.9181146 7.5488405,5.039484 7.2943244,5.2800346 4.8100019,7.656302 4.5439625,7.9136655 l -0.1641266,0.158774 z"
     id="path38" />
  <path
     style="fill:#000000;fill-opacity:0;stroke:#000000;stroke-width:0.0840092;stroke-linecap:round;stroke-linejoin:round;paint-order:stroke fill markers"
     d="m 4.4366342,7.0226506 c 5.222e-4,-0.9099148 0.028389,-2.5560601 0.043527,-2.5711978 0.00867,-0.00867 3.5610846,0.047784 3.5700359,0.056736 0.00305,0.00305 -0.0891,0.089373 -0.2047834,0.1918229 C 7.6240405,4.8960598 7.4208974,5.088734 5.7116061,6.7238535 5.1287222,7.2814441 4.6032825,7.7831355 4.5439625,7.838723 L 4.4361079,7.939791 Z"
     id="path39" />
  <path
     style="fill:#000000;fill-opacity:0;stroke:#000000;stroke-width:0.0840092;stroke-linecap:round;stroke-linejoin:round;paint-order:stroke fill markers"
     d="m 4.4987169,6.2648393 c 0.00679,-0.8510543 0.01784,-1.6010474 0.024553,-1.6666511 l 0.012206,-0.1192797 0.086307,0.010868 c 0.047469,0.00598 0.7278072,0.020288 1.5118635,0.031801 0.7840562,0.011513 1.5047951,0.026535 1.601642,0.033382 L 7.9113731,4.5674091 7.679016,4.7820435 C 7.5512195,4.9000924 6.8130386,5.6016859 6.038614,6.3411401 5.2641894,7.0805944 4.5981244,7.7140894 4.5584697,7.7489067 l -0.0721,0.063304 z"
     id="path40" />
  <path
     style="fill:#000000;fill-opacity:0;stroke:#000000;stroke-width:0.0840092;stroke-linecap:round;stroke-linejoin:round;paint-order:stroke fill markers"
     d="m 4.5393589,7.4337167 c 0.00488,-0.1424715 0.013182,-0.8386536 0.018458,-1.5470713 0.00528,-0.7084177 0.015035,-1.3022151 0.021687,-1.3195498 0.01086,-0.028302 0.041004,-0.030366 0.2954278,-0.02023 0.1558334,0.00621 0.8573077,0.020787 1.5588317,0.032398 0.701524,0.011611 1.2897523,0.026355 1.3071739,0.032764 0.024498,0.00901 -0.022255,0.062455 -0.2063306,0.2358466 C 7.4037031,4.9711797 6.6942826,5.6459451 5.9581168,6.3473524 5.2219509,7.0487597 4.5995768,7.6384148 4.5750634,7.6576972 l -0.04457,0.035058 z"
     id="path41" />
  <path
     style="fill:#000000;fill-opacity:0;stroke:#000000;stroke-width:0.0840092;stroke-linecap:round;stroke-linejoin:round;paint-order:stroke fill markers"
     d="m 4.5960188,6.8526679 c 0.00539,-0.3903037 0.014828,-1.0588371 0.020975,-1.4856295 l 0.011176,-0.7759861 0.5276498,0.012407 c 0.8508803,0.020008 2.2237117,0.047973 2.3648582,0.048173 l 0.1302913,1.845e-4 -0.064641,0.067711 c -0.1060072,0.111042 -2.9656815,2.8297582 -2.983606,2.8365399 -0.00942,0.00357 -0.0123,-0.2981258 -0.0067,-0.7033998 z"
     id="path42" />
  <path
     style="fill:#000000;fill-opacity:0;stroke:#000000;stroke-width:0.0840092;stroke-linecap:round;stroke-linejoin:round;paint-order:stroke fill markers"
     d="m 4.6427303,7.1835144 c 5.474e-4,-0.5090699 0.037227,-2.5191966 0.046131,-2.5281009 0.012033,-0.012033 2.5158617,0.034299 2.6892959,0.049764 l 0.137829,0.01229 -0.5411116,0.5167989 C 6.6772635,5.5185062 6.0834701,6.083146 5.6553341,6.4890219 5.2271981,6.8948978 4.8241501,7.2782726 4.7596717,7.3409658 L 4.6424385,7.4549537 Z"
     id="path43" />
  <path
     style="fill:#000000;fill-opacity:0;stroke:#000000;stroke-width:0.0840092;stroke-linecap:round;stroke-linejoin:round;paint-order:stroke fill markers"
     d="m 4.7058171,6.3024619 c 0.00657,-0.5622509 0.017331,-1.1537497 0.023914,-1.3144418 l 0.011969,-0.2921675 0.1426321,0.00582 c 0.078448,0.0032 0.6659615,0.015081 1.3055863,0.026401 0.6396249,0.01132 1.1696274,0.026991 1.1777837,0.034824 0.00816,0.00783 -0.046709,0.07218 -0.1219227,0.1429935 C 7.1705653,4.9767033 6.5941383,5.5238169 5.96483,6.1216978 5.3355217,6.7195787 4.7921118,7.2348502 4.7572525,7.2667451 l -0.063381,0.057991 z"
     id="path44" />
  <path
     style="fill:#000000;fill-opacity:0;stroke:#000000;stroke-width:0.0840092;stroke-linecap:round;stroke-linejoin:round;paint-order:stroke fill markers"
     d="m 4.7561613,6.5617408 c 0.00123,-0.6524558 0.025409,-1.7929467 0.038271,-1.8052358 0.00888,-0.00848 1.5981509,0.022748 2.114284,0.041548 l 0.362409,0.013201 -1.1951674,1.1348183 c -0.657342,0.62415 -1.2234741,1.158645 -1.2580714,1.1877665 l -0.062904,0.052948 z"
     id="path45" />
  <path
     style="fill:#000000;fill-opacity:0;stroke:#000000;stroke-width:0.0840092;stroke-linecap:round;stroke-linejoin:round;paint-order:stroke fill markers"
     d="m 4.816687,5.9458556 c 0.00634,-0.6116982 0.018886,-1.1195294 0.02787,-1.1285137 0.017063,-0.017063 1.86291,0.015413 2.1390646,0.037635 l 0.1559549,0.01255 -0.2878422,0.2719812 C 6.6934212,5.2890973 6.1812344,5.7744431 5.7135416,6.2180539 5.2458487,6.6616647 4.8501322,7.0321375 4.8341714,7.0413265 4.8080676,7.0563556 4.8063109,6.9462923 4.816687,5.9458556 Z"
     id="path46" />
  <path
     style="fill:#000000;fill-opacity:0;stroke:#000000;stroke-width:0.0840092;stroke-linecap:round;stroke-linejoin:round;paint-order:stroke fill markers"
     d="M 4.8719653,5.9121499 C 4.8775653,5.3415995 4.8866443,4.8702921 4.8921363,4.8648 4.9069003,4.850036 6.9524796,4.895416 6.9805599,4.91113 7.0011919,4.922676 6.3081168,5.590711 5.0194011,6.8014322 L 4.8617799,6.9495141 Z"
     id="path47" />
  <path
     style="fill:#000000;fill-opacity:0;stroke:#000000;stroke-width:0.0840092;stroke-linecap:round;stroke-linejoin:round;paint-order:stroke fill markers"
     d="m 4.9186346,6.1282071 c 0.00232,-0.3838785 0.00954,-0.818528 0.01605,-0.9658879 0.010438,-0.2362931 0.015476,-0.2669096 0.042678,-0.2593105 0.016964,0.00474 0.3515938,0.014564 0.743622,0.021833 0.3920281,0.00727 0.8131571,0.018449 0.9358422,0.024844 L 6.8798908,4.961313 6.3098165,5.50597 C 5.8340388,5.9605346 5.2787721,6.4862379 4.9800703,6.764918 l -0.065651,0.06125 z"
     id="path48" />
  <path
     style="fill:#000000;fill-opacity:0;stroke:#000000;stroke-width:0.0840092;stroke-linecap:round;stroke-linejoin:round;paint-order:stroke fill markers"
     d="m 4.9691021,5.9601407 c 0.00648,-0.4049238 0.016617,-0.7981979 0.022519,-0.8739425 l 0.010731,-0.1377173 0.1248498,0.01064 c 0.068667,0.00585 0.4244981,0.016099 0.7907349,0.02277 0.3662368,0.00667 0.7025247,0.017432 0.7473064,0.023912 L 6.7466643,5.017585 6.2338245,5.5060483 C 5.2913108,6.403762 4.9803382,6.6963658 4.9687819,6.6963658 c -0.00631,0 -0.00616,-0.3313013 3.202e-4,-0.7362251 z"
     id="path49" />
  <path
     style="fill:#000000;fill-opacity:0;stroke:#000000;stroke-width:0.0840092;stroke-linecap:round;stroke-linejoin:round;paint-order:stroke fill markers"
     d="m 5.0244928,5.8293901 c 0.00693,-0.4200958 0.017508,-0.7765889 0.023501,-0.7922069 0.011495,-0.029955 0.056177,-0.029731 1.2043533,0.00604 L 6.6336508,5.0550996 5.9712979,5.6834701 C 5.6070038,6.0290739 5.2421073,6.3751465 5.1604168,6.4525205 l -0.1485282,0.14068 z"
     id="path50" />
  <path
     style="fill:#000000;fill-opacity:0;stroke:#000000;stroke-width:0.0840092;stroke-linecap:round;stroke-linejoin:round;paint-order:stroke fill markers"
     d="m 5.0739195,6.0554277 c 3.43e-5,-0.2200515 0.00561,-0.5338762 0.012392,-0.6973882 l 0.01233,-0.2972947 0.5149957,0.013758 c 0.2832477,0.00757 0.5987428,0.018958 0.7011004,0.025313 L 6.5008424,5.1113716 5.8878335,5.6928488 C 5.5506787,6.0126612 5.229607,6.3150948 5.1743408,6.3649236 L 5.073857,6.4555212 Z"
     id="path51" />
  <path
     style="fill:#000000;fill-opacity:0;stroke:#000000;stroke-width:0.0840092;stroke-linecap:round;stroke-linejoin:round;paint-order:stroke fill markers"
     d="m 5.1302623,5.8489581 c 7.33e-5,-0.2612411 0.00562,-0.5331346 0.012335,-0.6042077 l 0.012202,-0.1292238 0.5460087,0.013465 c 0.3003049,0.00741 0.573267,0.019132 0.6065827,0.026058 l 0.060574,0.012594 -0.5755329,0.5439625 C 5.475888,6.0107855 5.1973751,6.2709526 5.1735136,6.2897553 L 5.130129,6.323942 Z"
     id="path52" />
  <path
     style="fill:#000000;fill-opacity:0;stroke:#000000;stroke-width:0.0840092;stroke-linecap:round;stroke-linejoin:round;paint-order:stroke fill markers"
     d="m 5.1864009,5.7147033 c 0,-0.2630874 0.00512,-0.4916924 0.011386,-0.5080109 0.00982,-0.025591 0.055591,-0.029342 0.3329426,-0.027284 0.1768564,0.00131 0.4122522,0.00764 0.5231018,0.014068 L 6.2553756,5.2051583 5.7373123,5.6928488 C 5.4523775,5.9610785 5.2118582,6.1833529 5.202825,6.1867917 5.1936971,6.1902666 5.1864009,5.9805486 5.1864009,5.7147033 Z"
     id="path53" />
  <path
     style="fill:#000000;fill-opacity:0;stroke:#000000;stroke-width:0.0840092;stroke-linecap:round;stroke-linejoin:round;paint-order:stroke fill markers"
     d="M 5.2426729,5.6569959 V 5.2332943 l 0.3704572,0.00108 c 0.2037515,5.946e-4 0.4016355,0.00693 0.4397423,0.014068 l 0.069285,0.012987 -0.3204497,0.3001173 C 5.6254604,5.726612 5.4275764,5.9109471 5.3619655,5.9711811 L 5.2426729,6.0806975 Z"
     id="path54" />
  <path
     style="fill:#000000;fill-opacity:0;stroke:#000000;stroke-width:0.0840092;stroke-linecap:round;stroke-linejoin:round;paint-order:stroke fill markers"
     d="M 5.2989449,5.6207266 V 5.2895662 h 0.3604086 c 0.3020509,0 0.3559614,0.00406 0.3329426,0.025082 C 5.9771898,5.328444 5.8338959,5.4613865 5.6738654,5.6100765 5.5138348,5.7587666 5.3640107,5.8965016 5.3409228,5.9161545 l -0.041978,0.035732 z"
     id="path55" />
  <path
     style="fill:#000000;fill-opacity:0;stroke:#000000;stroke-width:0.0840092;stroke-linecap:round;stroke-linejoin:round;paint-order:stroke fill markers"
     d="M 5.3552169,5.591385 V 5.3458382 h 0.2657288 c 0.1461508,0 0.2622118,0.0027 0.2579132,0.00601 -0.0043,0.00331 -0.1238765,0.1138018 -0.2657288,0.2455467 L 5.3552169,5.8369318 Z"
     id="path56" />
  <path
     style="fill:#000000;fill-opacity:0;stroke:#000000;stroke-width:0.0840092;stroke-linecap:round;stroke-linejoin:round;paint-order:stroke fill markers"
     d="M 5.4114889,5.5539155 V 5.4021102 h 0.163244 0.163244 l -0.074147,0.07663 c -0.040781,0.042147 -0.1142405,0.110459 -0.163244,0.1518053 l -0.089097,0.075175 z"
     id="path57" />
  <path
     style="fill:#000000;fill-opacity:0;stroke:#000000;stroke-width:0.0840092;stroke-linecap:round;stroke-linejoin:round;paint-order:stroke fill markers"
     d="m 5.4677608,5.5240328 c 0,-0.063188 0.0026,-0.065651 0.06933,-0.065651 h 0.06933 l -0.063631,0.065651 c -0.034997,0.036108 -0.066196,0.065651 -0.06933,0.065651 -0.00313,0 -0.0057,-0.029543 -0.0057,-0.065651 z"
     id="path58" />
</svg>
