<?xml version="1.0" encoding="UTF-8" standalone="no"?>
<svg
   viewBox="0 0 22 22"
   version="1.1"
   id="svg1"
   sodipodi:docname="window-close1.svg"
   inkscape:version="1.3.2 (091e20ef0f, 2023-11-25, custom)"
   xmlns:inkscape="http://www.inkscape.org/namespaces/inkscape"
   xmlns:sodipodi="http://sodipodi.sourceforge.net/DTD/sodipodi-0.dtd"
   xmlns="http://www.w3.org/2000/svg"
   xmlns:svg="http://www.w3.org/2000/svg">
  <defs
     id="defs1" />
  <sodipodi:namedview
     id="namedview1"
     pagecolor="#ffffff"
     bordercolor="#666666"
     borderopacity="1.0"
     inkscape:showpageshadow="2"
     inkscape:pageopacity="0.0"
     inkscape:pagecheckerboard="0"
     inkscape:deskcolor="#d1d1d1"
     inkscape:zoom="18.727273"
     inkscape:cx="3.4708738"
     inkscape:cy="11.213592"
     inkscape:window-width="1920"
     inkscape:window-height="1028"
     inkscape:window-x="0"
     inkscape:window-y="0"
     inkscape:window-maximized="1"
     inkscape:current-layer="svg1" />
  <style
     type="text/css"
     id="current-color-scheme">
        .ColorScheme-NegativeText {
            color:#da4453;
        }
    </style>
  <path
     d="M11 3a8 8 0 0 0-8 8 8 8 0 0 0 8 8 8 8 0 0 0 8-8 8 8 0 0 0-8-8M7.707 7L11 10.294l3.293-3.293.707.707-3.293 3.293L15 14.294l-.707.707L11 11.708l-3.293 3.293L7 14.294l3.293-3.293L7 7.708l.707-.707"
     class="ColorScheme-NegativeText"
     fill="currentColor"
     id="path1" />
  <path
     style="fill:#000000;stroke:#ff0000;stroke-width:0;stroke-dasharray:0,0;stroke-dashoffset:0"
     d="M 7.3554231,14.630908 7.0223271,14.297011 8.6574014,12.661774 C 9.5566923,11.762394 10.292476,11.014596 10.292476,11 c 0,-0.0146 -0.7358445,-0.762455 -1.6352097,-1.6619091 L 7.0220569,7.7027194 7.3623882,7.3623882 7.7027194,7.0220569 9.3380909,8.6572663 C 10.237545,9.5566315 10.985404,10.292476 11,10.292476 c 0.0146,0 0.762455,-0.7358445 1.661909,-1.6352097 l 1.635372,-1.6352094 0.340331,0.3403313 0.340331,0.3403312 -1.635209,1.6353715 C 12.443368,10.237545 11.707524,10.985404 11.707524,11 c 0,0.0146 0.735844,0.762455 1.63521,1.661909 l 1.635209,1.635372 -0.340331,0.340331 -0.340331,0.340331 -1.635372,-1.635209 c -0.899454,-0.899366 -1.647387,-1.63521 -1.662072,-1.63521 -0.01469,0 -0.759515,0.732889 -1.6551768,1.628641 -0.8956622,0.895752 -1.6347011,1.628641 -1.6423089,1.628641 -0.00761,0 -0.1637254,-0.150254 -0.3469282,-0.333898 z"
     id="path2" />
  <path
     style="fill:#ffffff;stroke:#ff0000;stroke-width:0;stroke-dasharray:none;stroke-dashoffset:0;stroke-miterlimit:4"
     d="M 10.42735,18.96678 C 8.5049036,18.828707 6.718478,18.009327 5.3446489,16.635498 4.2757527,15.566602 3.5362206,14.221701 3.2074288,12.748786 2.7753486,10.813162 3.0798678,8.7531619 4.0471629,7.0681848 5.2870985,4.9082824 7.3910557,3.4631696 9.8262546,3.0987886 c 1.7439004,-0.2609415 3.5978714,0.0828 5.1010524,0.9457771 0.936143,0.5374407 1.726187,1.2304496 2.353451,2.0281245 1.791769,2.2785428 2.255341,5.4111058 1.00194,8.2112908 -0.951197,2.125039 -2.893122,3.794483 -5.12549,4.406307 -0.93176,0.255368 -1.799825,0.343289 -2.729858,0.276492 z m 2.214508,-5.590699 1.641696,1.641859 0.367464,-0.366761 0.367464,-0.36676 -1.64213,-1.64229 -1.64213,-1.642291 1.641853,-1.6416895 1.641853,-1.6416902 -0.353253,-0.3539816 c -0.19429,-0.1946898 -0.365399,-0.3539816 -0.380243,-0.3539816 -0.01484,0 -0.75995,0.7328887 -1.655791,1.6286411 L 10.999838,10.265777 9.3581419,8.6239188 7.7164461,6.9820602 7.3489823,7.3488207 6.9815182,7.7155813 l 1.6421299,1.6422901 1.6421299,1.6422906 -1.6418589,1.641696 -1.6418589,1.641696 0.3667605,0.367464 0.3667606,0.367464 1.6422901,-1.64213 1.6422906,-1.64213 z"
     id="path3"
     sodipodi:nodetypes="ssssssssssccccccccssscccccccccccccc" />
</svg>
